<?xml version="1.0" encoding="iso-8859-1"?>
<!-- Generator: Adobe Illustrator 21.0.0, SVG Export Plug-In . SVG Version: 6.00 Build 0)  -->
<svg xmlns="http://www.w3.org/2000/svg" xmlns:xlink="http://www.w3.org/1999/xlink" version="1.1" id="Capa_1" x="0px" y="0px" viewBox="0 0 500.205 500.205" style="enable-background:new 0 0 500.205 500.205;" xml:space="preserve" width="512" height="512">
<g>
	<path style="fill:#E0E0E0;" d="M249.741,462.923c134.186,0,242.965-61.118,242.965-172.303S411.393,50.614,249.741,50.614h0.724   C88.812,50.614,7.5,179.434,7.5,290.619s108.779,172.303,242.965,172.303H249.741z"/>
	<g>
		<path style="fill:#C4C4C4;" d="M250.465,462.923c-0.121,0-0.241-0.003-0.362-0.003c-0.121,0-0.241,0.003-0.362,0.003H250.465z"/>
		<path style="fill:#C4C4C4;" d="M250.103,435.92c0.121,0,0.241,0.003,0.362,0.003h-0.724    C249.862,435.923,249.982,435.92,250.103,435.92C121.129,435.814,15.73,379.21,7.976,275.943    C7.665,280.86,7.5,285.757,7.5,290.619c0,111.085,108.584,172.191,242.603,172.301c134.019-0.11,242.603-61.216,242.603-172.301    c0-4.862-0.165-9.759-0.476-14.676C484.475,379.21,379.076,435.814,250.103,435.92z"/>
	</g>
	<path style="fill:#525256;" d="M205.511,242.842c-7.779,35.563-47.132,69.446-77.685,69.446s-47.472-27.702-41.197-63.561   c8.239-47.082,42.424-67.092,72.977-67.092S213.75,205.177,205.511,242.842z"/>
	<path style="fill:#454549;" d="M205.511,215.842c-7.779,35.563-47.132,69.446-77.685,69.446c-22.096,0-37.054-14.494-41.272-36.079   c-6.039,35.623,10.857,63.079,41.272,63.079c30.553,0,69.906-33.883,77.685-69.446c2.255-10.31,2.112-19.553,0.108-27.553   C205.58,215.475,205.552,215.656,205.511,215.842z"/>
	<path style="fill:#525256;" d="M42.956,163.819c21.025-35.1,51.384-65.787,91.051-86.323   c-12.378-22.376-35.426-40.213-59.119-40.213c-34.926,0-64.98,39.337-64.98,74.263C9.908,133.53,23.888,152.657,42.956,163.819z"/>
	<path style="fill:#454549;" d="M13.51,89.802c-2.327,7.181-3.602,14.556-3.602,21.744c0,21.984,13.981,41.111,33.049,52.273   c5.256-8.775,11.096-17.274,17.518-25.408C45.312,129.535,22.305,108.926,13.51,89.802z"/>
	<path style="fill:#525256;" d="M457.973,163.819c-21.025-35.1-51.384-65.787-91.051-86.323   c12.378-22.376,35.427-40.213,59.12-40.213c34.926,0,64.98,39.337,64.98,74.263C491.022,133.53,477.041,152.657,457.973,163.819z"/>
	<path style="fill:#454549;" d="M487.419,89.802c2.327,7.181,3.602,14.556,3.602,21.744c0,21.984-13.981,41.111-33.049,52.273   c-5.256-8.775-11.096-17.274-17.518-25.408C455.617,129.535,478.625,108.926,487.419,89.802z"/>
	<path style="fill:#525256;" d="M285.379,288.133c0,11.758-33.289,28.147-33.289,28.147s-33.289-16.389-33.289-28.147   s14.904-13.172,33.289-13.172C270.475,274.96,285.379,276.375,285.379,288.133z"/>
	<path style="fill:#454549;" d="M280.421,279.23c-0.331,0.345-0.675,0.69-1.03,1.034c-15.116,14.652-39.488,14.652-54.604,0   c-0.355-0.344-0.699-0.689-1.03-1.034c-3.14,1.963-4.957,4.803-4.957,8.903c0,11.758,33.289,28.147,33.289,28.147   s33.289-16.389,33.289-28.147C285.379,284.033,283.562,281.193,280.421,279.23z"/>
	<path style="fill:#525256;" d="M295.418,242.842c7.779,35.563,47.132,69.446,77.685,69.446s47.472-27.702,41.197-63.561   c-8.239-47.082-42.424-67.092-72.977-67.092S287.179,205.177,295.418,242.842z"/>
	<path style="fill:#454549;" d="M295.418,215.842c7.779,35.563,47.132,69.446,77.685,69.446c22.096,0,37.054-14.494,41.272-36.079   c6.039,35.623-10.857,63.079-41.272,63.079c-30.553,0-69.906-33.883-77.685-69.446c-2.255-10.31-2.112-19.553-0.108-27.553   C295.349,215.475,295.377,215.656,295.418,215.842z"/>
	<g>
		<path d="M467.531,166.596c19.523-13.6,30.99-33.76,30.99-55.05c0-18.92-7.705-38.982-21.14-55.042    c-14.207-16.982-32.919-26.722-51.34-26.722c-22.791,0-47.016,15.088-62.085,38.131c-30.043-14.551-67.426-24.673-113.36-24.799    c-0.044-0.001-0.088-0.001-0.133-0.001h-0.724c-0.044,0-0.088,0-0.132,0.001c-41.426,0.112-79.2,8.349-112.805,24.541    c-15.08-22.897-39.21-37.872-61.916-37.872c-18.42,0-37.133,9.74-51.34,26.722c-13.435,16.059-21.14,36.122-21.14,55.042    c0,21.099,11.257,41.09,30.46,54.684c-5.984,10.681-11.253,21.887-15.736,33.556c-1.486,3.867,0.444,8.206,4.311,9.691    c3.868,1.485,8.206-0.443,9.691-4.311c5.009-13.038,11.048-25.462,18.026-37.162c0.076-0.112,0.16-0.215,0.23-0.332    c21.542-35.964,51.995-64.843,88.065-83.518c0.197-0.102,0.385-0.215,0.571-0.333c33.021-17.022,70.569-25.66,112.074-25.709    c90.583,0.11,145.763,41.245,176.109,75.761c37.492,42.643,58.995,99.774,58.995,156.745c0,36.409-12.092,68.2-35.94,94.49    c-2.783,3.068-2.552,7.812,0.516,10.594c1.436,1.303,3.239,1.945,5.037,1.945c2.043,0,4.077-0.829,5.558-2.461    c26.429-29.135,39.83-64.317,39.83-104.568C500.205,247.491,488.602,204.279,467.531,166.596z M17.408,111.546    c0-30.053,26.524-66.764,57.48-66.764c17.41,0,36.195,11.749,48.559,29.856c-8.143,4.598-16.023,9.687-23.624,15.281    c-23.319,17.16-43.312,38.643-59.21,63.404C25.961,142.579,17.408,127.376,17.408,111.546z M426.042,44.782    c30.956,0,57.48,36.711,57.48,66.764c0,15.838-8.561,31.049-23.226,41.793c-21.18-32.963-49.589-59.941-82.833-78.672    C389.826,56.543,408.622,44.782,426.042,44.782z"/>
		<path d="M428.073,404.578c-42.446,32.733-105.635,50.785-177.969,50.845c-65.983-0.057-125.386-15.396-167.294-43.206    C38.448,382.777,15,340.729,15,290.619c0-18.884,2.405-38.068,7.149-57.021c1.006-4.019-1.436-8.091-5.455-9.097    c-4.019-1.007-8.09,1.437-9.096,5.454C2.556,250.099,0,270.509,0,290.619c0,55.376,25.767,101.745,74.516,134.096    c44.237,29.357,106.4,45.577,175.115,45.707c0.037,0.001,0.073,0.001,0.11,0.001h0.724c0.037,0,0.073,0,0.109-0.001    c75.436-0.14,141.699-19.292,186.66-53.965c3.28-2.53,3.889-7.239,1.359-10.52C436.063,402.657,431.354,402.05,428.073,404.578z"/>
		<path d="M159.606,174.136c-18.037,0-35.647,6.24-49.587,17.57c-16.036,13.034-26.679,32.305-30.778,55.729    c-3.855,22.026,0.407,42.363,11.691,55.794c9.102,10.834,21.859,16.56,36.893,16.56c16.521,0,35.6-8.479,52.346-23.265    c16.755-14.792,28.662-33.774,32.666-52.078c4.298-19.648,0.871-37.667-9.649-50.737    C193.177,181.27,177.292,174.136,159.606,174.136z M198.185,241.24c-3.338,15.258-13.522,31.31-27.939,44.039    c-13.837,12.216-29.694,19.509-42.419,19.509c-10.461,0-19.247-3.876-25.409-11.208c-8.428-10.031-11.49-25.908-8.4-43.559    c7.864-44.939,40.248-60.885,65.589-60.885c13.122,0,24.748,5.095,31.897,13.977C199.23,212.713,201.541,225.896,198.185,241.24z"/>
		<path d="M211.301,288.133c0,7.747,6.347,15.601,19.975,24.717c5.005,3.348,9.957,6.161,13.314,7.976v6.89    c-5.993,7.138-30.605,32.076-70.663,15.956c-3.842-1.547-8.212,0.315-9.757,4.158c-1.546,3.843,0.315,8.211,4.158,9.758    c11.482,4.621,21.957,6.408,31.299,6.408c14.648,0,26.505-4.399,35.048-9.166c7.618-4.252,13.456-9.236,17.415-13.191    c3.958,3.954,9.797,8.939,17.415,13.191c8.544,4.767,20.398,9.166,35.048,9.166c9.341,0,19.818-1.788,31.299-6.408    c3.843-1.547,5.704-5.915,4.158-9.758c-1.546-3.844-5.915-5.705-9.757-4.158c-40.08,16.128-64.699-8.849-70.662-15.954v-6.892    c3.358-1.814,8.309-4.628,13.315-7.976c13.627-9.115,19.974-16.969,19.974-24.716c0-20.673-26.534-20.673-40.789-20.673    S211.301,267.46,211.301,288.133z M277.878,288.05c-0.744,3.76-12.79,12.914-25.791,19.807    c-12.999-6.882-25.041-16.035-25.787-19.807c0.003-1.142,0.105-2.428,4.423-3.734c5.402-1.635,13.832-1.855,21.366-1.855    c7.534,0,15.964,0.221,21.366,1.855C277.773,285.622,277.876,286.908,277.878,288.05z"/>
		<path d="M153.805,219.684c-10.23,0-18.553,8.323-18.553,18.554c0,10.23,8.323,18.553,18.553,18.553    c10.23,0,18.553-8.322,18.553-18.553C172.358,228.008,164.036,219.684,153.805,219.684z"/>
		<path d="M316.643,282.278c-2.88,2.977-2.802,7.725,0.175,10.605c17.414,16.847,38.455,26.904,56.285,26.904    c15.034,0,27.791-5.725,36.893-16.56c11.285-13.431,15.546-33.768,11.691-55.794c-4.099-23.424-14.742-42.694-30.778-55.729    c-13.94-11.33-31.55-17.57-49.587-17.57c-17.685,0-33.571,7.134-43.582,19.571c-10.521,13.071-13.948,31.09-9.649,50.738    c1.673,7.65,4.687,15.392,8.956,23.011c2.025,3.613,6.596,4.9,10.209,2.876c3.613-2.025,4.901-6.596,2.876-10.21    c-3.545-6.326-6.031-12.679-7.388-18.882c-3.356-15.344-1.046-28.527,6.681-38.128c7.15-8.882,18.776-13.977,31.897-13.977    c25.342,0,57.725,15.945,65.589,60.885c3.089,17.651,0.027,33.528-8.4,43.559c-6.161,7.332-14.947,11.208-25.409,11.208    c-13.821,0-31.391-8.692-45.855-22.685C324.271,279.224,319.523,279.302,316.643,282.278z"/>
		<path d="M365.677,238.238c0-10.23-8.323-18.554-18.553-18.554s-18.553,8.323-18.553,18.554c0,10.23,8.323,18.553,18.553,18.553    S365.677,248.469,365.677,238.238z"/>
	</g>
</g>















</svg>
